<?xml version="1.0" encoding="iso-8859-1"?>
<!-- Generator: Adobe Illustrator 15.1.0, SVG Export Plug-In . SVG Version: 6.00 Build 0)  -->
<!DOCTYPE svg PUBLIC "-//W3C//DTD SVG 1.1//EN" "http://www.w3.org/Graphics/SVG/1.1/DTD/svg11.dtd">
<svg version="1.1" id="Layer_1" xmlns="http://www.w3.org/2000/svg" xmlns:xlink="http://www.w3.org/1999/xlink" x="0px" y="0px"
	 width="300px" height="100px" viewBox="0 0 300 100" style="enable-background:new 0 0 300 100;" xml:space="preserve">
<g>
	<g>
		<g>
			<path style="fill:#261D3E;" d="M110.798,48.477c-0.587-0.098-1.192-0.146-1.815-0.146c-2.042,0-3.418,0.782-4.127,2.347v13.572
				h-4.457V44.404h4.256l0.109,2.22c1.076-1.724,2.568-2.586,4.476-2.586c0.636,0,1.161,0.086,1.577,0.257L110.798,48.477z"/>
			<path style="fill:#261D3E;" d="M122.004,64.616c-2.824,0-5.114-0.89-6.868-2.669c-1.755-1.778-2.632-4.147-2.632-7.106V54.29
				c0-1.98,0.382-3.75,1.146-5.31c0.764-1.559,1.836-2.771,3.218-3.64s2.923-1.303,4.622-1.303c2.701,0,4.789,0.862,6.264,2.586
				c1.473,1.724,2.209,4.163,2.209,7.317v1.798h-12.966c0.134,1.639,0.681,2.934,1.642,3.888c0.959,0.954,2.167,1.432,3.622,1.432
				c2.042,0,3.704-0.825,4.988-2.477l2.403,2.294c-0.796,1.185-1.855,2.105-3.184,2.759
				C125.143,64.288,123.654,64.616,122.004,64.616z M121.473,47.614c-1.224,0-2.211,0.429-2.963,1.284s-1.232,2.049-1.439,3.576
				h8.492v-0.331c-0.099-1.491-0.496-2.618-1.193-3.382C123.673,47.997,122.707,47.614,121.473,47.614z"/>
			<path style="fill:#261D3E;" d="M139.006,39.582v4.822h3.502v3.303h-3.502v11.076c0,0.758,0.148,1.307,0.448,1.643
				s0.835,0.504,1.604,0.504c0.514,0,1.033-0.062,1.56-0.185v3.449c-1.016,0.282-1.993,0.422-2.935,0.422
				c-3.424,0-5.136-1.889-5.136-5.667V47.707h-3.265v-3.303h3.265v-4.822H139.006z"/>
			<path style="fill:#261D3E;" d="M156.301,48.477c-0.588-0.098-1.192-0.146-1.816-0.146c-2.042,0-3.418,0.782-4.127,2.347v13.572
				H145.9V44.404h4.256l0.11,2.22c1.075-1.724,2.567-2.586,4.474-2.586c0.636,0,1.163,0.086,1.578,0.257L156.301,48.477z"/>
			<path style="fill:#261D3E;" d="M157.62,54.143c0-1.942,0.386-3.693,1.155-5.254c0.77-1.559,1.854-2.756,3.247-3.594
				s2.995-1.257,4.806-1.257c2.678,0,4.852,0.862,6.519,2.586c1.671,1.724,2.571,4.012,2.706,6.859l0.02,1.046
				c0,1.956-0.379,3.705-1.129,5.245c-0.753,1.54-1.828,2.732-3.228,3.576c-1.4,0.844-3.017,1.266-4.852,1.266
				c-2.801,0-5.04-0.933-6.722-2.796c-1.682-1.866-2.522-4.352-2.522-7.457V54.143z M162.076,54.529
				c0,2.042,0.422,3.641,1.266,4.796s2.02,1.733,3.522,1.733s2.673-0.588,3.513-1.762c0.836-1.173,1.256-2.891,1.256-5.154
				c0-2.004-0.432-3.593-1.293-4.768c-0.862-1.174-2.033-1.761-3.512-1.761c-1.455,0-2.611,0.578-3.467,1.733
				S162.076,52.229,162.076,54.529z"/>
			<path style="fill:#261D3E;" d="M190.962,58.857c0-0.795-0.326-1.401-0.981-1.815c-0.652-0.416-1.738-0.782-3.254-1.102
				c-1.516-0.317-2.781-0.721-3.797-1.209c-2.225-1.077-3.338-2.636-3.338-4.678c0-1.712,0.721-3.142,2.164-4.292
				c1.443-1.148,3.277-1.724,5.503-1.724c2.372,0,4.287,0.587,5.749,1.761s2.192,2.696,2.192,4.566h-4.458
				c0-0.855-0.317-1.567-0.953-2.137c-0.636-0.568-1.479-0.852-2.53-0.852c-0.979,0-1.776,0.226-2.394,0.678
				c-0.619,0.453-0.926,1.058-0.926,1.815c0,0.685,0.286,1.217,0.861,1.597c0.574,0.378,1.736,0.761,3.485,1.146
				c1.747,0.385,3.12,0.844,4.116,1.376s1.736,1.17,2.219,1.916c0.484,0.745,0.725,1.65,0.725,2.715c0,1.785-0.738,3.23-2.218,4.336
				c-1.48,1.107-3.419,1.661-5.815,1.661c-1.626,0-3.074-0.293-4.346-0.881c-1.271-0.586-2.262-1.394-2.971-2.421
				c-0.71-1.027-1.064-2.134-1.064-3.318h4.329c0.062,1.051,0.458,1.86,1.192,2.43c0.732,0.567,1.704,0.852,2.916,0.852
				c1.172,0,2.064-0.223,2.677-0.669S190.962,59.578,190.962,58.857z"/>
			<path style="fill:#261D3E;" d="M216.603,54.529c0,3.069-0.696,5.518-2.091,7.345c-1.395,1.828-3.265,2.742-5.613,2.742
				c-2.176,0-3.916-0.715-5.227-2.146v9.408h-4.457V44.404h4.109l0.184,2.018c1.307-1.589,3.088-2.384,5.337-2.384
				c2.421,0,4.319,0.902,5.695,2.706c1.374,1.803,2.063,4.306,2.063,7.509V54.529z M212.164,54.143c0-1.979-0.395-3.551-1.184-4.712
				c-0.788-1.162-1.915-1.743-3.383-1.743c-1.822,0-3.131,0.752-3.926,2.256v8.804c0.807,1.54,2.129,2.312,3.963,2.312
				c1.418,0,2.527-0.572,3.328-1.716S212.164,56.467,212.164,54.143z"/>
			<path style="fill:#261D3E;" d="M229.111,64.616c-2.825,0-5.113-0.89-6.869-2.669c-1.754-1.778-2.631-4.147-2.631-7.106V54.29
				c0-1.98,0.381-3.75,1.146-5.31c0.763-1.559,1.837-2.771,3.218-3.64s2.923-1.303,4.622-1.303c2.701,0,4.789,0.862,6.264,2.586
				c1.474,1.724,2.209,4.163,2.209,7.317v1.798h-12.966c0.134,1.639,0.681,2.934,1.642,3.888c0.959,0.954,2.166,1.432,3.621,1.432
				c2.043,0,3.705-0.825,4.988-2.477l2.404,2.294c-0.795,1.185-1.855,2.105-3.184,2.759
				C232.25,64.288,230.762,64.616,229.111,64.616z M228.579,47.614c-1.224,0-2.21,0.429-2.963,1.284
				c-0.751,0.855-1.231,2.049-1.439,3.576h8.493v-0.331c-0.099-1.491-0.496-2.618-1.193-3.382
				C230.779,47.997,229.813,47.614,228.579,47.614z"/>
			<path style="fill:#261D3E;" d="M248.68,61.059c1.113,0,2.035-0.324,2.769-0.973c0.735-0.647,1.126-1.449,1.175-2.402h4.199
				c-0.049,1.234-0.434,2.388-1.155,3.457s-1.7,1.917-2.934,2.541c-1.235,0.623-2.567,0.935-3.997,0.935
				c-2.777,0-4.977-0.898-6.604-2.696c-1.626-1.797-2.44-4.279-2.44-7.446v-0.458c0-3.02,0.808-5.438,2.421-7.254
				s3.815-2.724,6.603-2.724c2.36,0,4.282,0.688,5.769,2.063c1.485,1.375,2.264,3.182,2.338,5.419h-4.199
				c-0.049-1.137-0.438-2.072-1.165-2.806s-1.653-1.101-2.778-1.101c-1.442,0-2.557,0.522-3.338,1.568
				c-0.783,1.046-1.181,2.633-1.193,4.759v0.717c0,2.15,0.39,3.756,1.166,4.813C246.09,60.529,247.213,61.059,248.68,61.059z"/>
			<path style="fill:#261D3E;" d="M265.773,39.582v4.822h3.502v3.303h-3.502v11.076c0,0.758,0.148,1.307,0.449,1.643
				c0.3,0.336,0.835,0.504,1.605,0.504c0.512,0,1.032-0.062,1.559-0.185v3.449c-1.016,0.282-1.993,0.422-2.936,0.422
				c-3.424,0-5.136-1.889-5.136-5.667V47.707h-3.265v-3.303h3.265v-4.822H265.773z"/>
		</g>
	</g>
	<linearGradient id="SVGID_1_" gradientUnits="userSpaceOnUse" x1="74.9746" y1="45.4624" x2="58.4343" y2="35.1707">
		<stop  offset="0" style="stop-color:#F3DEB5"/>
		<stop  offset="1" style="stop-color:#69C1BD"/>
	</linearGradient>
	<path style="fill:url(#SVGID_1_);" d="M73.092,35.678C69,27.963,56.925,22.99,47.289,22.352h16.327
		c1.373,0,2.746,0.119,4.105,0.373c12.555,2.266,20.898,14.288,18.633,26.829c-0.081,0.452-0.174,0.893-0.293,1.332
		c-6.092,5.104-13.715,7.998-21.646,8.157c7.146-0.414,12.81-6.345,12.81-13.594C77.224,41.609,75.637,38.158,73.092,35.678z"/>
	<linearGradient id="SVGID_2_" gradientUnits="userSpaceOnUse" x1="50.394" y1="59.7207" x2="86.0605" y2="59.7207">
		<stop  offset="0" style="stop-color:#E38748"/>
		<stop  offset="1" style="stop-color:#EEBB40"/>
	</linearGradient>
	<path style="fill:url(#SVGID_2_);" d="M64.414,59.043c7.932-0.159,15.555-3.053,21.646-8.157
		c-1.84,7.638-7.331,13.541-14.262,16.168C68,68.491,63.788,68.958,59.51,68.186l-9.116-9.115h13.221
		C63.882,59.07,64.149,59.07,64.414,59.043z"/>
	<linearGradient id="SVGID_3_" gradientUnits="userSpaceOnUse" x1="58.0488" y1="27.0957" x2="28.8976" y2="27.0957">
		<stop  offset="0" style="stop-color:#377F8E"/>
		<stop  offset="1" style="stop-color:#69C1BD"/>
	</linearGradient>
	<path style="fill:url(#SVGID_3_);" d="M39.265,13.408v8.943h4.024h3.999C56.925,22.99,69,27.963,73.092,35.678
		c-2.453-2.371-5.797-3.838-9.477-3.838h-24.35v8.943L25.579,27.096L39.265,13.408z"/>
	<linearGradient id="SVGID_4_" gradientUnits="userSpaceOnUse" x1="85.625" y1="84.835" x2="67.2466" y2="70.1323">
		<stop  offset="0" style="stop-color:#DF574F"/>
		<stop  offset="1" style="stop-color:#E38748"/>
	</linearGradient>
	<path style="fill:url(#SVGID_4_);" d="M89.338,84.593h-6.877c-4.186,0-8.209-1.666-11.182-4.638l-11.77-11.77
		c4.278,0.772,8.49,0.306,12.289-1.132L89.338,84.593z"/>
</g>
</svg>
